<svg width="294" height="325" viewBox="0 0 294 325" fill="none" xmlns="http://www.w3.org/2000/svg">
<path d="M26.5914 260.192C27.2146 260.814 27.8297 261.147 28.4366 261.19C29.0732 261.233 29.6867 260.956 30.2773 260.361C30.8383 259.796 31.0884 259.186 31.0275 258.533C30.9963 257.88 30.6468 257.221 29.9791 256.554C29.7417 256.318 29.534 256.125 29.356 255.977C29.2076 255.829 29.037 255.689 28.8443 255.555L25.4117 259.015L26.5914 260.192ZM18.3252 266.203C18.1177 266.085 17.8137 265.87 17.4133 265.559C17.0277 265.263 16.6643 264.945 16.323 264.605C15.9817 264.264 15.7071 263.931 15.499 263.605C15.2911 263.308 15.1645 263.004 15.1193 262.693C15.0741 262.381 15.1251 262.062 15.2723 261.735C15.4195 261.408 15.685 261.051 16.0689 260.664L26.4995 250.151C26.8095 249.838 27.1273 249.682 27.4529 249.681C27.8082 249.68 28.1858 249.775 28.586 249.967C29.2676 250.292 29.9644 250.736 30.6763 251.298C31.4178 251.86 32.115 252.467 32.7678 253.119C34.8156 255.162 35.9455 257.163 36.1576 259.122C36.3698 261.08 35.7303 262.811 34.2392 264.314C33.5157 265.044 32.74 265.587 31.9121 265.946C31.1137 266.304 30.2705 266.469 29.3823 266.442C28.5238 266.414 27.6277 266.172 26.6941 265.714C25.79 265.256 24.8854 264.576 23.9803 263.672L22.4 262.096L18.3252 266.203Z" fill="#C34479" style="fill:#C34479;fill:color(display-p3 0.7661 0.2655 0.4741);fill-opacity:1;"/>
<path d="M44.991 279.541C44.1827 280.559 43.3036 281.346 42.3536 281.902C41.4167 282.442 40.4465 282.755 39.4431 282.839C38.4561 282.936 37.4588 282.811 36.4511 282.463C35.4434 282.114 34.4564 281.554 33.4902 280.783C32.524 280.012 31.7652 279.164 31.2137 278.241C30.6623 277.318 30.3151 276.357 30.1722 275.357C30.0586 274.354 30.1591 273.334 30.4737 272.297C30.7884 271.261 31.3368 270.25 32.119 269.264C32.8881 268.295 33.7412 267.541 34.6781 267.001C35.615 266.461 36.577 266.142 37.564 266.045C38.5804 265.944 39.599 266.06 40.6198 266.391C41.6405 266.723 42.634 267.275 43.6002 268.046C44.5664 268.818 45.3187 269.673 45.8571 270.613C46.4085 271.536 46.741 272.499 46.8545 273.502C46.9975 274.502 46.9117 275.52 46.5971 276.557C46.2825 277.593 45.7471 278.588 44.991 279.541ZM36.3933 272.677C35.598 273.678 35.1736 274.601 35.1201 275.443C35.0959 276.283 35.4278 276.977 36.1156 277.526C36.8034 278.075 37.5426 278.223 38.3331 277.968C39.1399 277.727 39.9345 277.114 40.7167 276.128C41.4989 275.143 41.9103 274.237 41.9508 273.411C42.0043 272.568 41.6872 271.872 40.9994 271.323C40.3116 270.774 39.5642 270.62 38.7573 270.861C37.9635 271.086 37.1755 271.691 36.3933 272.677Z" fill="#C34479" style="fill:#C34479;fill:color(display-p3 0.7661 0.2655 0.4741);fill-opacity:1;"/>
<path d="M51.1866 291.894C50.8062 291.96 50.3628 291.927 49.8563 291.795C49.3391 291.681 48.7839 291.447 48.1907 291.092C47.4537 290.651 46.8799 290.161 46.4693 289.622C46.048 289.101 45.8601 288.597 45.9056 288.111C45.9652 287.56 46.1391 286.735 46.4272 285.637C46.7332 284.549 47.0928 283.37 47.5061 282.102C47.9194 280.834 48.3524 279.553 48.8051 278.259C49.2758 276.977 49.711 275.856 50.1107 274.897C50.5125 274.795 50.9737 274.778 51.4944 274.845C52.0438 274.905 52.5702 275.086 53.0735 275.387C53.7026 275.763 54.1292 276.214 54.353 276.739C54.6056 277.257 54.573 277.885 54.2554 278.624C53.62 280.101 53.0972 281.329 52.6868 282.305C52.2871 283.264 51.9516 284.053 51.6803 284.673C51.4377 285.286 51.2432 285.756 51.0968 286.084C50.9792 286.405 50.8847 286.666 50.8134 286.868L50.9212 286.932C51.1468 286.676 51.4833 286.315 51.9309 285.85C52.4072 285.377 52.9443 284.843 53.5423 284.247C54.1404 283.652 54.7796 283.008 55.4599 282.315C56.151 281.604 56.8367 280.902 57.5171 280.209C57.9946 280.226 58.4362 280.282 58.8421 280.378C59.266 280.485 59.7386 280.695 60.2599 281.007C60.889 281.383 61.3693 281.805 61.7007 282.272C62.0321 282.739 62.1374 283.218 62.0166 283.708C61.7604 284.63 61.506 285.529 61.2532 286.404C61.0113 287.262 60.7781 288.063 60.5538 288.809C60.3402 289.537 60.1462 290.191 59.9717 290.771C59.808 291.333 59.6673 291.774 59.5496 292.095L59.6844 292.176C60.708 290.906 61.7547 289.577 62.8246 288.188C63.9125 286.81 64.9985 285.394 66.0826 283.941C66.5242 283.936 66.9515 283.996 67.3647 284.121C67.7778 284.246 68.1641 284.416 68.5236 284.631C69.1528 285.008 69.5937 285.455 69.8462 285.973C70.0988 286.49 70.0267 287.083 69.6299 287.75C69.4583 288.038 69.1559 288.444 68.7228 288.967C68.2898 289.49 67.7868 290.069 67.214 290.704C66.6412 291.339 66.02 291.994 65.3504 292.669C64.6987 293.355 64.0542 294.008 63.4167 294.629C62.7972 295.26 62.2207 295.82 61.687 296.307C61.1713 296.805 60.754 297.179 60.4351 297.428C60.0548 297.494 59.5664 297.434 58.97 297.248C58.3629 297.08 57.7628 296.819 57.1696 296.464C55.6596 295.561 54.995 294.65 55.1758 293.731C55.261 293.342 55.3675 292.856 55.4953 292.272C55.6338 291.671 55.7902 291.019 55.9643 290.316C56.1385 289.614 56.3324 288.899 56.546 288.171C56.7703 287.425 57.0055 286.723 57.2515 286.063C56.7503 286.619 56.2061 287.185 55.6188 287.763C55.0422 288.322 54.462 288.867 53.8782 289.398C53.3231 289.922 52.8037 290.405 52.3202 290.849C51.8474 291.275 51.4695 291.624 51.1866 291.894Z" fill="#C34479" style="fill:#C34479;fill:color(display-p3 0.7661 0.2655 0.4741);fill-opacity:1;"/>
<path d="M73.4217 304.901C72.2897 304.405 71.3015 303.79 70.4569 303.054C69.6399 302.307 69.005 301.456 68.5522 300.503C68.1185 299.557 67.8999 298.511 67.8964 297.364C67.912 296.226 68.2002 295.012 68.761 293.723C69.3134 292.453 69.9878 291.454 70.7841 290.726C71.608 289.987 72.4812 289.476 73.4038 289.193C74.3348 288.89 75.2905 288.793 76.2711 288.901C77.26 288.99 78.2053 289.232 79.107 289.627C80.1239 290.072 80.9778 290.629 81.6689 291.297C82.3791 291.975 82.9144 292.713 83.2748 293.512C83.6544 294.319 83.844 295.169 83.8437 296.062C83.8626 296.964 83.6796 297.857 83.2945 298.742C83.01 299.396 82.6101 299.817 82.0949 300.004C81.5797 300.19 80.975 300.189 80.2808 300L72.708 297.958C72.6428 298.685 72.8652 299.355 73.3753 299.968C73.8937 300.561 74.5749 301.042 75.4191 301.411C76.2057 301.756 76.9862 301.983 77.7606 302.092C78.5625 302.191 79.2427 302.203 79.8012 302.126C80.0245 302.453 80.1663 302.836 80.2267 303.274C80.287 303.713 80.2335 304.125 80.0661 304.51C79.6895 305.375 79.0061 305.844 78.0162 305.914C77.26 305.973 76.473 305.892 75.6554 305.672C74.8377 305.451 74.0932 305.194 73.4217 304.901ZM77.5501 293.206C77.0897 293.004 76.6533 292.905 76.241 292.908C75.8479 292.919 75.4914 293.003 75.1715 293.161C74.8601 293.3 74.5798 293.498 74.3308 293.755C74.1093 294.002 73.922 294.275 73.7689 294.574L79.0415 295.919C79.1514 295.509 79.1078 295.032 78.9106 294.488C78.7135 293.944 78.26 293.516 77.5501 293.206Z" fill="#C34479" style="fill:#C34479;fill:color(display-p3 0.7661 0.2655 0.4741);fill-opacity:1;"/>
<path d="M88.575 310.268C88.3566 310.261 88.019 310.214 87.5623 310.128C87.1255 310.048 86.6788 309.931 86.2221 309.779C85.7853 309.632 85.3981 309.469 85.0606 309.29C84.743 309.117 84.4949 308.901 84.3163 308.642C84.1377 308.384 84.0286 308.081 83.989 307.736C83.976 307.378 84.0523 306.95 84.218 306.452L87.2008 297.491C87.3533 297.034 87.562 296.672 87.8268 296.406C88.1182 296.128 88.4658 295.912 88.8697 295.76C89.2735 295.607 89.7369 295.508 90.2599 295.462C90.8093 295.402 91.3786 295.382 91.9677 295.403C92.5568 295.423 93.1525 295.489 93.7548 295.603C94.3637 295.696 94.9561 295.839 95.5319 296.032C96.4849 296.351 97.1764 296.792 97.6064 297.357C98.043 297.901 98.1221 298.592 97.8437 299.428C97.7509 299.707 97.6184 299.972 97.4462 300.225C97.2806 300.457 97.1018 300.663 96.9098 300.842C96.4928 300.702 96.0593 300.579 95.6093 300.473C95.1592 300.366 94.7124 300.283 94.269 300.223C93.8255 300.163 93.3986 300.12 92.9882 300.093C92.6043 300.053 92.2634 300.05 91.9655 300.083L88.575 310.268Z" fill="#C34479" style="fill:#C34479;fill:color(display-p3 0.7661 0.2655 0.4741);fill-opacity:1;"/>
<path d="M107.589 300.171C107.806 300.147 108.136 300.144 108.58 300.161C109.044 300.182 109.513 300.237 109.987 300.324C110.44 300.407 110.836 300.512 111.174 300.638C111.534 300.768 111.82 300.949 112.033 301.18C112.246 301.411 112.384 301.703 112.447 302.056C112.535 302.393 112.531 302.819 112.437 303.335L111.22 309.994C111.066 310.841 111.16 311.488 111.504 311.935C111.852 312.362 112.417 312.647 113.199 312.791C113.673 312.878 114.061 312.906 114.364 312.877C114.688 312.851 114.94 312.812 115.12 312.76L117.101 301.919C117.318 301.895 117.649 301.892 118.092 301.909C118.557 301.931 119.025 301.985 119.499 302.072C119.952 302.155 120.348 302.26 120.686 302.386C121.046 302.516 121.332 302.697 121.545 302.928C121.758 303.159 121.896 303.451 121.959 303.805C122.047 304.141 122.044 304.567 121.949 305.083L120.229 314.499C120.04 315.531 119.466 316.226 118.507 316.583C117.704 316.905 116.777 317.087 115.726 317.129C114.693 317.195 113.589 317.12 112.415 316.904C111.304 316.7 110.297 316.387 109.395 315.965C108.514 315.547 107.781 315.017 107.195 314.376C106.61 313.735 106.206 312.978 105.983 312.105C105.763 311.211 105.759 310.185 105.97 309.029L107.589 300.171Z" fill="#C34479" style="fill:#C34479;fill:color(display-p3 0.7661 0.2655 0.4741);fill-opacity:1;"/>
<path d="M132.577 303.22C133.83 303.315 134.976 303.57 136.015 303.986C137.076 304.382 137.968 304.944 138.69 305.673C139.412 306.401 139.953 307.295 140.314 308.354C140.676 309.392 140.805 310.612 140.699 312.014C140.598 313.354 140.322 314.512 139.87 315.488C139.419 316.465 138.823 317.272 138.082 317.91C137.342 318.528 136.47 318.967 135.463 319.228C134.478 319.49 133.39 319.576 132.201 319.485C131.303 319.417 130.479 319.218 129.727 318.887L129.334 324.099C129.12 324.146 128.781 324.184 128.318 324.212C127.852 324.261 127.379 324.267 126.899 324.23C126.44 324.196 126.025 324.133 125.654 324.041C125.304 323.952 125.011 323.803 124.774 323.596C124.538 323.388 124.37 323.112 124.27 322.768C124.169 322.444 124.137 322.021 124.177 321.498L125.314 306.426C125.356 305.861 125.506 305.409 125.762 305.071C126.04 304.734 126.398 304.435 126.838 304.174C127.516 303.804 128.345 303.53 129.324 303.352C130.303 303.173 131.388 303.129 132.577 303.22ZM131.735 315.219C133.885 315.382 135.057 314.176 135.251 311.601C135.352 310.262 135.156 309.247 134.662 308.557C134.189 307.868 133.452 307.486 132.45 307.41C132.054 307.38 131.695 307.405 131.374 307.486C131.055 307.546 130.775 307.63 130.536 307.738L130.015 314.646C130.256 314.791 130.52 314.916 130.806 315.022C131.091 315.128 131.401 315.193 131.735 315.219Z" fill="#C34479" style="fill:#C34479;fill:color(display-p3 0.7661 0.2655 0.4741);fill-opacity:1;"/>
<path d="M154.246 315.654C153.98 315.147 153.69 314.577 153.374 313.947C153.079 313.315 152.757 312.59 152.408 311.772C152.079 310.953 151.722 310.02 151.336 308.974C150.969 307.905 150.571 306.68 150.141 305.3C150.414 304.986 150.783 304.708 151.249 304.466C151.734 304.201 152.269 304.049 152.854 304.009C153.585 303.959 154.201 304.074 154.703 304.356C155.203 304.616 155.597 305.157 155.884 305.979L158.947 314.448L159.073 314.44C159.275 313.711 159.462 312.919 159.635 312.066C159.828 311.211 160.01 310.336 160.18 309.44C160.348 308.524 160.496 307.62 160.624 306.727C160.771 305.812 160.889 304.92 160.977 304.052C161.701 303.602 162.513 303.347 163.411 303.285C164.142 303.235 164.758 303.351 165.26 303.632C165.761 303.913 166.039 304.441 166.091 305.216C166.13 305.782 166.102 306.446 166.007 307.21C165.911 307.953 165.766 308.752 165.573 309.607C165.4 310.461 165.177 311.349 164.904 312.273C164.651 313.174 164.376 314.066 164.08 314.949C163.783 315.832 163.474 316.674 163.15 317.474C162.826 318.254 162.507 318.96 162.193 319.591C161.678 320.658 161.193 321.533 160.736 322.216C160.279 322.9 159.833 323.435 159.398 323.823C158.964 324.231 158.521 324.514 158.071 324.671C157.621 324.849 157.146 324.956 156.645 324.99C155.768 325.05 155.04 324.837 154.461 324.351C153.882 323.864 153.512 323.206 153.351 322.375C153.983 321.806 154.612 321.174 155.236 320.479C155.861 319.805 156.422 319.114 156.92 318.406C156.558 318.326 156.155 318.112 155.711 317.763C155.288 317.393 154.799 316.69 154.246 315.654Z" fill="#C34479" style="fill:#C34479;fill:color(display-p3 0.7661 0.2655 0.4741);fill-opacity:1;"/>
<path d="M185.025 308.024C185.247 309.306 185.249 310.488 185.032 311.57C184.812 312.631 184.4 313.565 183.796 314.373C183.213 315.177 182.456 315.841 181.527 316.365C180.598 316.889 179.525 317.256 178.308 317.468C177.091 317.679 175.955 317.685 174.901 317.484C173.847 317.284 172.9 316.905 172.06 316.348C171.237 315.766 170.544 315.013 169.981 314.089C169.417 313.164 169.029 312.081 168.814 310.84C168.603 309.62 168.608 308.479 168.829 307.418C169.049 306.357 169.451 305.424 170.034 304.62C170.635 303.791 171.398 303.105 172.323 302.561C173.249 302.016 174.32 301.638 175.537 301.427C176.754 301.216 177.891 301.22 178.949 301.442C180.004 301.642 180.942 302.033 181.765 302.614C182.605 303.171 183.306 303.912 183.869 304.837C184.433 305.762 184.818 306.824 185.025 308.024ZM174.197 309.905C174.415 311.167 174.82 312.097 175.413 312.698C176.022 313.273 176.76 313.486 177.626 313.336C178.492 313.185 179.093 312.729 179.429 311.968C179.786 311.203 179.857 310.2 179.642 308.959C179.428 307.718 179.026 306.808 178.438 306.228C177.845 305.628 177.116 305.403 176.25 305.554C175.384 305.704 174.772 306.162 174.416 306.927C174.056 307.671 173.983 308.664 174.197 309.905Z" fill="#C34479" style="fill:#C34479;fill:color(display-p3 0.7661 0.2655 0.4741);fill-opacity:1;"/>
<path d="M186.237 300.181C186.421 300.063 186.716 299.913 187.121 299.73C187.546 299.542 187.99 299.382 188.453 299.248C188.895 299.121 189.296 299.038 189.656 299C190.035 298.956 190.372 298.991 190.665 299.103C190.958 299.215 191.212 299.415 191.425 299.703C191.652 299.965 191.838 300.348 191.983 300.853L193.846 307.36C194.083 308.187 194.455 308.724 194.961 308.971C195.462 309.198 196.094 309.202 196.859 308.982C197.322 308.848 197.682 308.701 197.941 308.539C198.219 308.371 198.428 308.224 198.565 308.097L195.532 297.504C195.716 297.386 196.01 297.236 196.416 297.053C196.841 296.865 197.285 296.705 197.748 296.571C198.19 296.444 198.591 296.361 198.951 296.323C199.33 296.279 199.667 296.314 199.96 296.426C200.253 296.538 200.507 296.738 200.72 297.026C200.947 297.288 201.133 297.671 201.278 298.176L203.912 307.376C204.201 308.385 203.996 309.263 203.295 310.011C202.718 310.658 201.968 311.234 201.046 311.74C200.15 312.26 199.128 312.685 197.981 313.016C196.895 313.329 195.854 313.497 194.859 313.522C193.885 313.54 192.993 313.393 192.185 313.08C191.377 312.767 190.679 312.269 190.091 311.586C189.498 310.883 189.039 309.967 188.716 308.837L186.237 300.181Z" fill="#C34479" style="fill:#C34479;fill:color(display-p3 0.7661 0.2655 0.4741);fill-opacity:1;"/>
<path d="M214.351 307.036C214.179 307.172 213.891 307.354 213.486 307.583C213.101 307.804 212.684 308.003 212.237 308.181C211.808 308.351 211.408 308.476 211.034 308.557C210.68 308.63 210.352 308.625 210.049 308.542C209.746 308.459 209.469 308.298 209.217 308.06C208.977 307.794 208.76 307.417 208.567 306.929L205.098 298.147C204.921 297.698 204.848 297.286 204.881 296.912C204.925 296.511 205.052 296.121 205.263 295.744C205.475 295.367 205.765 294.991 206.136 294.618C206.518 294.218 206.941 293.836 207.405 293.471C207.869 293.106 208.367 292.772 208.901 292.47C209.427 292.148 209.972 291.875 210.536 291.651C211.47 291.28 212.283 291.171 212.974 291.326C213.658 291.46 214.162 291.938 214.485 292.757C214.593 293.031 214.662 293.319 214.692 293.623C214.715 293.908 214.71 294.181 214.678 294.442C214.269 294.604 213.859 294.79 213.446 294.999C213.033 295.208 212.638 295.433 212.26 295.674C211.882 295.914 211.528 296.157 211.197 296.401C210.877 296.618 210.614 296.836 210.407 297.053L214.351 307.036Z" fill="#C34479" style="fill:#C34479;fill:color(display-p3 0.7661 0.2655 0.4741);fill-opacity:1;"/>
<path d="M225.544 293.807C224.864 292.601 224.459 291.456 224.329 290.373C224.189 289.271 224.273 288.246 224.581 287.3C224.908 286.343 225.422 285.485 226.124 284.726C226.834 283.938 227.69 283.259 228.692 282.691C229.057 282.485 229.433 282.32 229.82 282.197C230.197 282.055 230.521 281.968 230.791 281.936L228.288 277.495C228.44 277.337 228.7 277.117 229.07 276.835C229.43 276.534 229.819 276.265 230.239 276.028C230.639 275.8 231.01 275.626 231.351 275.506C231.71 275.375 232.045 275.329 232.356 275.37C232.668 275.41 232.961 275.546 233.235 275.776C233.498 275.988 233.759 276.323 234.017 276.78L241.339 289.774C241.823 290.633 241.809 291.545 241.295 292.511C240.963 293.158 240.449 293.847 239.755 294.578C239.071 295.327 238.183 296.012 237.089 296.631C235.905 297.303 234.746 297.742 233.613 297.951C232.498 298.148 231.438 298.123 230.432 297.873C229.444 297.613 228.535 297.152 227.704 296.489C226.882 295.798 226.162 294.904 225.544 293.807ZM231.376 285.981C230.392 286.539 229.795 287.251 229.586 288.117C229.377 288.983 229.596 289.991 230.245 291.143C230.884 292.276 231.614 292.995 232.435 293.301C233.247 293.589 234.117 293.469 235.046 292.943C235.374 292.757 235.64 292.546 235.844 292.31C236.055 292.045 236.198 291.808 236.272 291.597L232.873 285.566C232.385 285.553 231.886 285.692 231.376 285.981Z" fill="#C34479" style="fill:#C34479;fill:color(display-p3 0.7661 0.2655 0.4741);fill-opacity:1;"/>
<path d="M250.458 283.554C250.747 283.345 251.042 283.092 251.345 282.796C251.652 282.47 251.854 282.194 251.951 281.969L250.481 279.926L248.758 281.406C248.307 281.784 247.99 282.169 247.807 282.56C247.624 282.952 247.655 283.318 247.9 283.658C248.145 283.998 248.474 284.187 248.888 284.224C249.307 284.232 249.83 284.009 250.458 283.554ZM243.033 273.667C243.95 273.003 244.849 272.495 245.731 272.142C246.629 271.776 247.482 271.599 248.29 271.609C249.103 271.591 249.868 271.775 250.585 272.162C251.29 272.532 251.931 273.117 252.506 273.917L256.622 279.636C256.941 280.079 257.077 280.537 257.03 281.011C256.989 281.455 256.872 281.902 256.679 282.352C256.054 283.815 254.739 285.271 252.736 286.72C251.837 287.371 250.961 287.876 250.108 288.234C249.273 288.579 248.47 288.773 247.699 288.813C246.944 288.841 246.233 288.696 245.565 288.377C244.914 288.046 244.337 287.531 243.835 286.833C242.989 285.659 242.688 284.505 242.931 283.371C243.174 282.238 243.97 281.066 245.319 279.856L248.397 277.085L248.269 276.906C247.913 276.413 247.442 276.223 246.853 276.338C246.27 276.424 245.571 276.762 244.756 277.352C244.111 277.819 243.532 278.341 243.019 278.92C242.506 279.498 242.077 280.067 241.731 280.628C241.4 280.634 241.048 280.54 240.675 280.344C240.29 280.131 239.974 279.854 239.729 279.514C239.411 279.071 239.262 278.649 239.282 278.246C239.306 277.814 239.472 277.345 239.778 276.838C240.136 276.294 240.615 275.741 241.216 275.176C241.833 274.6 242.439 274.097 243.033 273.667Z" fill="#C34479" style="fill:#C34479;fill:color(display-p3 0.7661 0.2655 0.4741);fill-opacity:1;"/>
<path d="M261.033 274.782C260.513 274.545 259.934 274.276 259.299 273.973C258.679 273.657 257.98 273.284 257.203 272.855C256.442 272.411 255.588 271.896 254.641 271.309C253.697 270.692 252.632 269.972 251.446 269.149C251.469 268.734 251.59 268.287 251.809 267.809C252.029 267.3 252.358 266.85 252.794 266.458C253.34 265.968 253.897 265.679 254.465 265.591C255.019 265.488 255.661 265.671 256.391 266.143L264.001 270.931L264.094 270.847C263.806 270.148 263.469 269.408 263.082 268.629C262.71 267.835 262.316 267.033 261.901 266.222C261.472 265.396 261.034 264.592 260.588 263.809C260.143 262.997 259.689 262.221 259.225 261.482C259.521 260.68 260.004 259.979 260.674 259.376C261.22 258.886 261.777 258.597 262.345 258.509C262.913 258.421 263.455 258.667 263.972 259.245C264.349 259.667 264.735 260.209 265.129 260.87C265.508 261.515 265.884 262.234 266.256 263.028C266.643 263.807 267.012 264.645 267.364 265.541C267.717 266.408 268.047 267.281 268.355 268.16C268.662 269.039 268.934 269.894 269.171 270.725C269.393 271.54 269.574 272.293 269.714 272.985C269.962 274.143 270.116 275.132 270.175 275.953C270.234 276.774 270.21 277.472 270.105 278.046C270.013 278.635 269.838 279.131 269.579 279.533C269.334 279.951 269.024 280.328 268.65 280.664C267.995 281.252 267.291 281.533 266.536 281.507C265.782 281.48 265.086 281.189 264.449 280.634C264.599 279.795 264.706 278.909 264.772 277.976C264.852 277.058 264.871 276.167 264.829 275.303C264.494 275.463 264.045 275.542 263.482 275.541C262.921 275.51 262.104 275.257 261.033 274.782Z" fill="#C34479" style="fill:#C34479;fill:color(display-p3 0.7661 0.2655 0.4741);fill-opacity:1;"/>
<path d="M266.591 249.778C266.94 250.11 267.442 250.602 268.095 251.253C268.734 251.889 269.419 252.599 270.15 253.382C270.866 254.15 271.575 254.941 272.277 255.754C272.964 256.552 273.538 257.272 273.999 257.914C273.987 258.018 273.946 258.153 273.876 258.318C273.807 258.483 273.722 258.648 273.623 258.814C273.523 258.98 273.417 259.139 273.302 259.291C273.188 259.442 273.08 259.571 272.979 259.678C272.561 260.119 272.14 260.427 271.715 260.602C271.305 260.761 270.866 260.691 270.399 260.391C269.978 260.135 269.382 259.698 268.61 259.079C267.854 258.446 267.036 257.755 266.158 257.005C265.279 256.256 264.416 255.507 263.567 254.757C262.733 253.992 262.027 253.335 261.45 252.786C261.572 252.322 261.767 251.857 262.036 251.389C262.304 250.892 262.619 250.453 262.979 250.073C263.57 249.448 264.168 249.106 264.773 249.046C265.393 248.97 265.999 249.214 266.591 249.778ZM274.092 264.905C273.47 264.312 273.141 263.638 273.107 262.882C273.072 262.096 273.378 261.36 274.027 260.675C274.675 259.99 275.384 259.652 276.154 259.661C276.924 259.641 277.62 259.927 278.242 260.52C278.865 261.112 279.194 261.801 279.229 262.588C279.264 263.344 278.957 264.065 278.308 264.75C277.66 265.435 276.951 265.788 276.181 265.808C275.411 265.798 274.715 265.497 274.092 264.905Z" fill="#C34479" style="fill:#C34479;fill:color(display-p3 0.7661 0.2655 0.4741);fill-opacity:1;"/>
<path d="M233.621 124.502C236.168 124.502 237.079 124.836 237.841 125.503C238.626 126.17 239.02 127.574 239.02 129.713V133.425C239.02 136.397 238.611 138.161 237.796 138.717C237.008 139.245 236.357 139.843 233.621 139.511C230.882 139.177 231.071 124.505 233.621 124.502Z" fill="#C34479" style="fill:#C34479;fill:color(display-p3 0.7661 0.2655 0.4741);fill-opacity:1;"/>
<path d="M146.88 124.502C149.185 124.502 150.706 124.85 151.438 125.545C152.169 126.239 152.533 127.742 152.533 130.048V135.592C152.533 138.092 152.207 139.747 151.56 140.553C150.943 141.33 149.817 141.719 148.187 141.719C147.824 141.72 149.945 142.094 146.88 141.677C143.814 141.258 144.576 124.504 146.88 124.502Z" fill="#C34479" style="fill:#C34479;fill:color(display-p3 0.7661 0.2655 0.4741);fill-opacity:1;"/>
<path d="M190.25 124.502C192.555 124.502 194.077 124.85 194.808 125.545C195.539 126.239 195.903 127.742 195.903 130.048V135.592C195.903 138.092 195.578 139.747 194.931 140.553C194.347 141.289 193.308 141.668 191.817 141.708C191.596 141.702 191.13 141.688 190.25 141.677C187.064 141.636 187.946 124.505 190.25 124.502Z" fill="#C34479" style="fill:#C34479;fill:color(display-p3 0.7661 0.2655 0.4741);fill-opacity:1;"/>
<path fill-rule="evenodd" clip-rule="evenodd" d="M147 0C228.186 0 294 65.3622 294 145.991C294 226.619 228.186 291.981 147 291.981C65.8141 291.981 0 226.619 0 145.991C0 65.3622 65.8141 0 147 0ZM92.2625 124.628C91.0898 124.43 89.9986 125.274 89.9043 126.448L85.6366 181.155C85.5565 182.185 86.2844 183.106 87.3147 183.279L104.36 186.145C105.395 186.319 106.39 185.684 106.66 184.683L120.826 131.642C121.128 130.506 120.381 129.357 119.209 129.159L92.2625 124.628ZM215.859 180.445H233.621V150.013C236.067 150.013 237.571 150.446 238.134 151.308C238.723 152.169 239.02 154.405 239.02 158.017V180.445C239.068 180.463 250.805 184.83 255.516 180.445C260.598 175.714 256.33 169.222 254.864 162.274C254.551 160.783 253.922 158.486 253.922 158.486C253.909 158.413 252.673 151.026 251.469 149.588C250.259 148.143 249.244 146.084 245.729 145.222C249.608 144.861 252.21 143.774 253.534 141.968C254.855 140.162 255.516 136.633 255.516 131.382C255.516 125.629 254.571 121.445 252.687 118.833C250.83 116.194 248.415 114.555 245.434 113.915C242.479 113.276 236.813 112.957 228.433 112.957H215.859V180.445ZM129.118 180.445C129.205 180.472 141.098 184.24 146.88 180.445C155.702 174.651 146.947 153.43 146.88 153.267H151.65C155.528 153.267 158.665 152.738 161.054 151.682C163.474 150.626 165.133 149.11 166.033 147.137C166.936 145.164 167.382 142.023 167.382 137.716V131.84C167.382 127.616 167.144 124.504 166.666 122.503C166.217 120.474 165.33 118.752 164.009 117.334C162.715 115.917 160.76 114.833 158.142 114.083C155.557 113.333 151.844 112.957 147.006 112.957H129.118V180.445ZM172.489 180.445C172.567 180.47 184.466 184.241 190.25 180.445C199.074 174.65 190.315 153.424 190.25 153.267H195.017C198.899 153.267 202.036 152.738 204.425 151.682C206.844 150.626 208.503 149.11 209.403 147.137C210.306 145.164 210.752 142.023 210.752 137.716V131.84C210.752 127.616 210.514 124.504 210.036 122.503C209.588 120.475 208.701 118.752 207.377 117.334C206.086 115.917 204.132 114.833 201.515 114.083C198.93 113.333 195.215 112.957 190.376 112.957H172.489V180.445ZM56.3849 111.539C52.1664 111.539 48.5683 112.221 45.5863 113.583C42.6039 114.917 40.44 116.778 39.0887 119.168C37.7678 121.558 37.1068 125.338 37.1068 130.507C37.1068 134.091 37.5678 137.037 38.4977 139.343C39.4548 141.65 40.6496 143.457 42.0852 144.763C43.5212 146.069 46.4468 148.167 50.8602 151.056C55.2743 153.918 58.044 155.961 59.1696 157.184C60.2682 158.406 60.8142 161.006 60.8142 164.98C60.8141 166.786 60.5202 168.147 59.9306 169.064C59.3679 169.981 58.4957 170.44 57.3132 170.44C56.1337 170.44 55.3053 170.077 54.8267 169.355C54.3754 168.633 54.1495 167.008 54.1494 164.48C54.1494 164.48 55.5748 159.139 54.1494 156.267C51.2951 150.504 37.749 156.226 37.6531 156.267V160.686C37.6532 165.744 38.1757 169.648 39.2169 172.399C40.2548 175.15 42.4485 177.417 45.7981 179.195C49.1712 180.974 53.236 181.862 57.9905 181.862C62.3205 181.862 66.1182 181.098 69.3801 179.57C72.642 178.013 74.8357 176.095 75.9613 173.817C77.1138 171.538 77.6896 167.993 77.6896 163.186C77.6894 156.572 76.6649 151.779 74.6094 148.806C72.557 145.832 67.5796 142.024 59.6741 137.383C56.9215 135.772 55.2464 134.397 54.6567 133.257C54.0367 132.118 53.7258 130.423 53.7257 128.172C53.7257 126.422 53.9961 125.115 54.5285 124.253C55.0913 123.392 55.9076 122.962 56.9759 122.962C57.9598 122.962 58.6648 123.281 59.086 123.92C59.5068 124.56 59.7187 126.046 59.7188 128.379C59.7188 128.379 59.156 131.513 59.7188 133.383C61.5865 139.562 76.215 133.383 76.215 133.383V130.713C76.2149 125.35 75.6776 121.556 74.6094 119.333C73.5679 117.083 71.4179 115.22 68.1564 113.748C64.9215 112.275 60.998 111.539 56.3849 111.539ZM115.858 91.5153L114.947 91.5181L109.994 103.614C109.914 103.599 109.836 103.58 109.757 103.567C107.698 103.221 105.567 103.431 103.485 104.182C101.399 104.932 99.4022 106.209 97.606 107.942C95.8133 109.675 94.2568 111.83 93.0234 114.282C92.0834 116.155 91.3475 118.176 90.8353 120.272C90.576 121.346 91.3224 122.382 92.4241 122.567L119.747 127.163C120.849 127.348 121.905 126.614 122.016 125.514C122.238 123.369 122.217 121.221 121.955 119.146C121.614 116.43 120.862 113.887 119.75 111.665C118.638 109.444 117.183 107.584 115.468 106.194C114.562 105.46 113.591 104.869 112.575 104.419L116.764 94.1822L129.734 94.1682C130.479 94.1675 131.083 93.5711 131.084 92.8348C131.084 92.098 130.48 91.5007 129.732 91.5013L115.858 91.5153Z" fill="#C34479" style="fill:#C34479;fill:color(display-p3 0.7661 0.2655 0.4741);fill-opacity:1;"/>
</svg>
